<svg xmlns="http://www.w3.org/2000/svg" xmlns:xlink="http://www.w3.org/1999/xlink" width="575" height="100" viewBox="0 0 575 100">
  <defs>
    <polygon id="a" points="0 .339 99.56 .339 99.56 88.941 0 88.941"/>
  </defs>
  <g fill="none" fill-rule="evenodd" transform="translate(30 6)">
    <mask id="b" fill="white">
      <use xlink:href="#a"/>
    </mask>
    <path fill="#FFFFFF" d="M60.697 47.069L58.629 47.372C53.414 48.278 51.277 58.334 50.937 69.251 50.638 79.905 53.209 88.536 58.312 89L89.289 88.803C93.993 88.335 98.289 81.399 99.56 69.43L72.586 69.602C65.854 68.984 61.8 59.743 60.697 47.069M48.268 20.866C48.016 20.866 47.753 20.914 47.482 21.012L26.265 24.139C22.894 24.723 21.52 31.199 21.297 38.241 21.104 45.112 22.762 50.674 26.057 50.978L46.032 50.85C49.382 50.518 52.424 45.159 52.855 35.904 53.286 27.254 51.267 20.866 48.268 20.866M18.871.339C18.696.339 18.509.371 18.323.437L3.479 2.621C1.134 3.023.17 7.56.009 12.483-.119 17.29 1.04 21.172 3.34 21.384L17.297 21.293C19.642 21.066 21.764 17.316 22.078 10.847 22.378 4.806 20.964.339 18.871.339" mask="url(#b)"/>
    <path fill="#FFFFFF" d="M112.21,12.232 C111.772,12.232 111.326,12.308 110.866,12.472 L74.454,17.835 C68.676,18.835 66.323,29.953 65.94,42.04 C65.607,53.826 68.457,63.359 74.096,63.878 L108.364,63.663 C114.102,63.093 119.339,53.888 120.085,38.029 C120.815,23.189 117.349,12.232 112.21,12.232"/>
    <polyline fill="#FFFFFF" points="189.284 15.94 202.451 39.995 187.782 66.034 200.475 66.045 211.235 45.719 221.97 66.056 234.655 66.074 220.034 40.006 233.234 15.976 220.048 15.973 211.25 34.495 202.473 15.951 189.284 15.94"/>
    <path fill="#FFFFFF" d="M247.89 2.968L244.949 16.486 238.112 16.983 238.108 24.997 244.942 25 244.924 53.256C244.92 55.195 245.179 56.963 245.698 58.567 246.217 60.17 247.104 61.522 248.335 62.617 249.566 63.728 251.177 64.575 253.164 65.182 255.151 65.788 257.613 66.087 260.535 66.091L263.467 66.091C266.397 66.091 268.435 65.682 269.571 64.842 270.711 64.013 271.281 62.592 271.281 60.586L271.288 58.085 270.312 57.08 263.373 57.08C261.685 57.077 260.378 56.909 259.468 56.569 258.555 56.24 257.89 55.751 257.47 55.115 257.047 54.48 256.802 53.727 256.743 52.865 256.674 52 256.641 51.061 256.641 50.06L256.659 25.007 270.335 25.026 270.341 16.004 256.671 15.997 256.677 2.972 247.89 2.968M298.667 15.527C297.491 15.527 296.139 15.56 294.609 15.626 293.082 15.695 291.179 15.791 288.896 15.922 286.617 16.053 283.527 16.251 279.619 16.517L279.579 66.104 291.303 66.115 291.333 24.538 303.046 24.545 303.057 15.531C301.362 15.527 299.894 15.527 298.667 15.527M319.63 16.045C316.713 16.045 314.689 16.458 313.546 17.294 312.418 18.127 311.839 19.548 311.839 21.549L311.839 24.055 312.812 25.056 330.884 25.07C332.707 25.07 334.172 25.304 335.282 25.775 336.378 26.239 337.229 26.864 337.817 27.627 338.397 28.401 338.77 29.304 338.942 30.334 339.095 31.375 339.179 32.463 339.175 33.595L339.175 35.593C336.509 35.33 334.467 35.129 333.072 34.991 331.666 34.852 330.515 34.757 329.606 34.688 328.697 34.622 327.816 34.589 326.968 34.585 326.187 34.585 325.044 34.582 323.553 34.582L323.473 34.582C320.573 34.582 318.14 34.881 316.172 35.477 314.188 36.075 312.574 36.926 311.343 38.029 310.105 39.125 309.221 40.481 308.695 42.084 308.176 43.687 307.918 45.459 307.914 47.391L307.91 53.805C307.906 55.741 308.17 57.516 308.688 59.112 309.207 60.719 310.084 62.07 311.322 63.177 312.556 64.28 314.171 65.135 316.15 65.734 318.133 66.337 320.595 66.636 323.528 66.64 325.219 66.64 326.848 66.64 328.408 66.647L328.594 66.647C330.175 66.647 331.932 66.611 333.88 66.549 335.895 66.479 338.255 66.384 340.954 66.26 343.657 66.125 346.97 65.924 350.875 65.661L350.9 29.892C350.9 27.96 350.589 26.133 349.972 24.439 349.355 22.733 348.365 21.261 347.006 20.023 345.633 18.788 343.906 17.813 341.827 17.111 339.742 16.407 337.24 16.06 334.306 16.056L319.66 16.045 319.63 16.045zM339.161 57.636L325.581 57.622C324.214 57.622 323.144 57.476 322.359 57.172 321.582 56.869 320.978 56.471 320.551 55.967 320.128 55.463 319.872 54.882 319.777 54.221 319.685 53.545 319.628 52.88 319.63 52.212L319.634 50.003C319.634 49.272 319.685 48.592 319.785 47.95 319.876 47.321 320.131 46.759 320.562 46.252 320.986 45.751 321.589 45.349 322.371 45.046 323.144 44.747 324.229 44.597 325.595 44.597L339.172 44.615 339.161 57.636z"/>
    <polyline fill="#FFFFFF" points="361.164 4.053 361.117 66.168 373.327 66.179 373.349 38.923 396.791 38.942 396.769 66.194 408.975 66.208 409.023 4.097 396.809 4.086 396.797 29.329 373.352 29.314 373.379 4.064 361.164 4.053"/>
    <path fill="#FFFFFF" d="M434.894 16.129C431.964 16.129 429.503 16.433 427.516 17.028 425.529 17.634 423.915 18.482 422.68 19.585 421.438 20.68 420.554 22.039 420.043 23.639 419.517 25.242 419.261 27.01 419.254 28.942L419.236 53.392C419.236 55.332 419.495 57.096 420.021 58.703 420.533 60.303 421.417 61.662 422.647 62.757 423.878 63.868 425.489 64.715 427.476 65.321 429.459 65.924 431.921 66.22 434.854 66.227L446.567 66.235 446.608 66.235C449.518 66.235 451.969 65.935 453.942 65.347 455.94 64.744 457.544 63.886 458.782 62.787 460.019 61.691 460.892 60.339 461.419 58.733 461.941 57.132 462.204 55.361 462.211 53.425L462.218 28.979C462.226 27.043 461.963 25.272 461.448 23.672 460.929 22.061 460.048 20.714 458.814 19.61 457.58 18.503 455.962 17.652 453.978 17.053 451.995 16.451 449.534 16.148 446.615 16.14L434.894 16.129zM438.667 57.213C435.738 57.209 433.725 56.727 432.611 55.755 431.508 54.784 430.953 53.265 430.953 51.201L430.971 31.163C430.971 29.092 431.526 27.569 432.633 26.601 433.74 25.637 435.753 25.155 438.667 25.155L442.795 25.155C445.72 25.155 447.74 25.648 448.846 26.616 449.946 27.58 450.508 29.103 450.508 31.174L450.487 51.208C450.487 53.283 449.935 54.81 448.821 55.763 447.721 56.731 445.731 57.213 442.824 57.213L438.667 57.213zM494.561 15.678C493.064 15.678 491.373 15.718 489.48 15.78 487.461 15.846 485.097 15.941 482.402 16.073 479.699 16.204 476.393 16.405 472.486 16.668L472.434 86.293 484.155 86.3 484.167 65.762C486.383 66.036 488.3 66.236 489.919 66.364 491.562 66.507 492.98 66.606 494.185 66.675 495.38 66.74 496.439 66.777 497.348 66.777L499.792 66.777C502.724 66.777 505.179 66.478 507.17 65.882 509.149 65.283 510.767 64.436 512.005 63.333 513.24 62.233 514.121 60.878 514.65 59.274 515.166 57.671 515.432 55.903 515.432 53.968L515.443 28.521C515.443 26.585 515.198 24.81 514.669 23.21 514.153 21.607 513.273 20.255 512.035 19.152 510.804 18.049 509.186 17.191 507.207 16.591 505.215 15.985 502.768 15.689 499.836 15.689 498.137 15.686 496.475 15.682 494.853 15.682 494.758 15.682 494.66 15.678 494.561 15.678M496.968 57.759L484.177 57.744 484.203 24.689 497.772 24.7C499.339 24.7 500.53 24.854 501.337 25.156 502.159 25.456 502.736 25.891 503.093 26.457 503.448 27.023 503.649 27.706 503.689 28.509 503.714 29.313 503.729 30.182 503.729 31.117L503.714 50.757C503.714 51.758 503.681 52.689 503.612 53.559 503.547 54.428 503.298 55.177 502.879 55.809 502.451 56.448 501.794 56.93 500.873 57.262 499.964 57.598 498.667 57.759 496.968 57.759M155.041 3.898C152.145 3.898 149.709 4.197 147.74 4.793 145.756 5.391 144.138 6.239 142.904 7.338 141.67 8.441 140.793 9.793 140.267 11.396 139.748 13.003 139.482 14.767 139.482 16.707L139.478 24.618C139.478 24.94 139.507 25.243 139.536 25.561L139.536 42.636C139.504 43.008 139.463 43.385 139.463 43.753L139.456 53.174C139.456 55.113 139.712 56.881 140.23 58.484 140.749 60.088 141.633 61.439 142.867 62.539 144.098 63.642 145.713 64.493 147.7 65.099 149.683 65.705 152.141 66.005 155.07 66.005L178.505 66.023 178.6 66.023C181.478 66.023 183.487 65.607 184.609 64.785 185.752 63.945 186.325 62.527 186.325 60.523L186.325 57.516 185.35 56.519 160.356 56.497C156.963 56.494 154.672 55.843 153.467 54.532 152.265 53.232 151.666 51.545 151.666 49.477L151.67 45.675C151.67 43.728 152.211 42.081 153.28 40.715 154.358 39.345 156.396 38.662 159.391 38.662L175.598 38.673 175.609 29.757 159.395 29.743C156.403 29.743 154.365 29.052 153.292 27.686 152.218 26.324 151.681 24.658 151.681 22.723L151.685 20.421C151.692 18.351 152.291 16.667 153.5 15.366 154.698 14.066 156.999 13.416 160.381 13.416L185.386 13.438 186.361 12.43 186.365 9.427C186.365 7.429 185.792 6.005 184.652 5.172 183.52 4.336 181.482 3.912 178.552 3.912L155.118 3.898 155.041 3.898"/>
  </g>
</svg>
